<svg width="24" height="24" viewBox="0 0 24 24" fill="none" xmlns="http://www.w3.org/2000/svg">
<path d="M14.8136 7.43172C14.6644 7.16032 14.3769 6.99407 14.0671 7.00016C13.7575 7.00626 13.4766 7.1836 13.3381 7.46067L9.88166 14.3736L8.35533 11.5984C8.20885 11.3321 7.92904 11.1667 7.62514 11.1667H6.16682C5.70658 11.1667 5.3335 11.5398 5.3335 12C5.3335 12.4602 5.70658 12.8333 6.16682 12.8333H7.13244L9.18666 16.5682C9.33596 16.8397 9.62346 17.0059 9.93318 16.9998C10.2429 16.9938 10.5237 16.8165 10.6622 16.5393L14.1187 9.62645L15.645 12.4016C15.7914 12.6679 16.0712 12.8334 16.3751 12.8334H17.8335C18.2937 12.8334 18.6668 12.4603 18.6668 12C18.6668 11.5398 18.2937 11.1667 17.8335 11.1667H16.8679L14.8136 7.43172Z" fill="#A3A4AF"/>
<path fill-rule="evenodd" clip-rule="evenodd" d="M2 12C2 20.235 3.765 22 12 22C20.235 22 22 20.235 22 12C22 3.765 20.235 2 12 2C3.765 2 2 3.765 2 12ZM3.66668 12C3.66668 14.0207 3.77715 15.5307 4.03145 16.6751C4.28156 17.8004 4.64809 18.4673 5.09039 18.9096C5.5327 19.3519 6.19957 19.7185 7.32496 19.9686C8.46926 20.2229 9.9793 20.3333 12 20.3333C14.0207 20.3333 15.5307 20.2229 16.6751 19.9686C17.8004 19.7185 18.4673 19.3519 18.9096 18.9096C19.3519 18.4673 19.7185 17.8004 19.9686 16.6751C20.2229 15.5307 20.3333 14.0207 20.3333 12C20.3333 9.9793 20.2229 8.46922 19.9686 7.32496C19.7185 6.19961 19.3519 5.53273 18.9096 5.09039C18.4673 4.64809 17.8004 4.28152 16.6751 4.03145C15.5307 3.77715 14.0207 3.66668 12 3.66668C9.9793 3.66668 8.46922 3.77715 7.32496 4.03145C6.19961 4.28156 5.53273 4.64809 5.09039 5.09039C4.64805 5.5327 4.28152 6.19957 4.03145 7.32496C3.77711 8.46922 3.66668 9.9793 3.66668 12Z" fill="#A3A4AF"/>
</svg>
