<svg width="20" height="22" viewBox="0 0 20 22" fill="none" xmlns="http://www.w3.org/2000/svg">
<path d="M16.7484 8.74963C16.3344 8.74963 15.9984 8.41363 15.9984 7.99963C15.9984 4.92988 13.6078 2.30563 10.5553 2.02513C7.49567 1.7435 4.65655 3.88475 4.09855 6.90051C4.0318 7.25975 3.99805 7.6295 3.99805 7.99963C3.99805 8.41363 3.66205 8.74963 3.24805 8.74963C2.83405 8.74963 2.49805 8.41363 2.49805 7.99963C2.49805 7.538 2.54005 7.07638 2.6233 6.6275C3.3208 2.85763 6.86305 0.17788 10.6929 0.53113C14.5093 0.88213 17.4984 4.16263 17.4984 7.99963C17.4984 8.414 17.1628 8.74963 16.7484 8.74963Z" fill="white"/>
<path d="M16.749 17.7496C16.335 17.7496 15.999 17.4136 15.999 16.9996C15.999 16.5856 16.335 16.2496 16.749 16.2496C17.487 16.2496 17.943 15.7445 18.1234 15.2716C18.303 14.8014 18.2993 14.1234 17.7491 13.6314C17.4405 13.3554 17.4135 12.881 17.6903 12.5724C17.9659 12.2637 18.4406 12.2371 18.7489 12.5135C19.6699 13.337 19.9744 14.63 19.5244 15.8067C19.0736 16.9869 17.9843 17.7496 16.749 17.7496Z" fill="white"/>
<path d="M16.749 10.4686C16.335 10.4686 15.999 10.1326 15.999 9.71863V8C15.999 7.586 16.335 7.25 16.749 7.25C17.163 7.25 17.499 7.586 17.499 8V9.71863C17.499 10.1326 17.1634 10.4686 16.749 10.4686Z" fill="white"/>
<path d="M18.2486 13.8226C18.0705 13.8226 17.892 13.7596 17.7491 13.6318C16.6369 12.6369 15.999 11.2108 15.999 9.71863C15.999 9.30463 16.335 8.96863 16.749 8.96863C17.163 8.96863 17.499 9.30463 17.499 9.71863C17.499 10.7844 17.9546 11.8033 18.7489 12.5139C19.0575 12.7899 19.0845 13.2643 18.8078 13.5729C18.66 13.7383 18.4549 13.8226 18.2486 13.8226Z" fill="white"/>
<path d="M3.24902 10.4686C2.83502 10.4686 2.49902 10.1326 2.49902 9.71863V8C2.49902 7.586 2.83502 7.25 3.24902 7.25C3.66302 7.25 3.99902 7.586 3.99902 8V9.71863C3.99902 10.1326 3.6634 10.4686 3.24902 10.4686Z" fill="white"/>
<path d="M1.74926 13.8226C1.54301 13.8226 1.33788 13.7383 1.19013 13.5725C0.913757 13.2639 0.940381 12.7895 1.24901 12.5135C2.04326 11.8029 2.49888 10.7844 2.49888 9.71826C2.49888 9.30426 2.83488 8.96826 3.24888 8.96826C3.66288 8.96826 3.99888 9.30426 3.99888 9.71826C3.99888 11.2104 3.36101 12.6365 2.24876 13.6314C2.10588 13.7596 1.92738 13.8226 1.74926 13.8226Z" fill="white"/>
<path d="M9.99902 21.4996C7.55965 21.4996 5.49902 19.439 5.49902 16.9996C5.49902 16.5856 5.83502 16.2496 6.24902 16.2496C6.66302 16.2496 6.99902 16.5856 6.99902 16.9996C6.99902 18.6256 8.37265 19.9996 9.99902 19.9996C11.6254 19.9996 12.999 18.6256 12.999 16.9996C12.999 16.5856 13.335 16.2496 13.749 16.2496C14.163 16.2496 14.499 16.5856 14.499 16.9996C14.499 19.439 12.4384 21.4996 9.99902 21.4996Z" fill="white"/>
<path d="M3.24882 17.7497C2.01357 17.7497 0.924947 16.9888 0.475322 15.8113C0.0245717 14.6315 0.328322 13.337 1.24895 12.5139C1.55795 12.2379 2.03195 12.2642 2.30795 12.5732C2.58395 12.8822 2.55732 13.3558 2.2487 13.6322C1.69895 14.1238 1.69595 14.804 1.87632 15.2765C2.05595 15.7472 2.5112 16.2504 3.24882 16.2504C3.66282 16.2504 3.99882 16.5864 3.99882 17.0004C3.99882 17.4144 3.6632 17.7497 3.24882 17.7497Z" fill="white"/>
<path d="M16.749 17.7496H3.24902C2.83502 17.7496 2.49902 17.4136 2.49902 16.9996C2.49902 16.5856 2.83502 16.2496 3.24902 16.2496H16.749C17.163 16.2496 17.499 16.5856 17.499 16.9996C17.499 17.4136 17.1634 17.7496 16.749 17.7496Z" fill="white"/>
</svg>
