<svg width="24" height="24" viewBox="0 0 24 24" fill="none" xmlns="http://www.w3.org/2000/svg">
<path d="M18.7494 9.74975C18.3354 9.74975 17.9994 9.41375 17.9994 8.99975C17.9994 5.93 15.6088 3.30575 12.5563 3.02525C9.49665 2.74363 6.65752 4.88488 6.09952 7.90063C6.03277 8.25988 5.99902 8.62963 5.99902 8.99975C5.99902 9.41375 5.66302 9.74975 5.24902 9.74975C4.83502 9.74975 4.49902 9.41375 4.49902 8.99975C4.49902 8.53813 4.54102 8.0765 4.62427 7.62763C5.32177 3.85775 8.86402 1.178 12.6939 1.53125C16.5103 1.88225 19.4994 5.16275 19.4994 8.99975C19.4994 9.41413 19.1638 9.74975 18.7494 9.74975Z" fill="white"/>
<path d="M18.7495 18.75C18.3355 18.75 17.9995 18.414 17.9995 18C17.9995 17.586 18.3355 17.25 18.7495 17.25C19.4875 17.25 19.9435 16.7449 20.1239 16.272C20.3035 15.8017 20.2998 15.1237 19.7496 14.6317C19.441 14.3557 19.414 13.8814 19.6908 13.5727C19.9664 13.2641 20.4411 13.2375 20.7494 13.5139C21.6704 14.3374 21.9749 15.6304 21.5249 16.8071C21.0741 17.9872 19.9848 18.75 18.7495 18.75Z" fill="white"/>
<path d="M18.7495 11.4686C18.3355 11.4686 17.9995 11.1326 17.9995 10.7186V9C17.9995 8.586 18.3355 8.25 18.7495 8.25C19.1635 8.25 19.4995 8.586 19.4995 9V10.7186C19.4995 11.1326 19.1639 11.4686 18.7495 11.4686Z" fill="white"/>
<path d="M20.2491 14.8228C20.071 14.8228 19.8925 14.7598 19.7496 14.6319C18.6374 13.637 17.9995 12.2109 17.9995 10.7188C17.9995 10.3048 18.3355 9.96875 18.7495 9.96875C19.1635 9.96875 19.4995 10.3048 19.4995 10.7188C19.4995 11.7845 19.9551 12.8034 20.7494 13.514C21.058 13.79 21.085 14.2644 20.8083 14.573C20.6605 14.7384 20.4554 14.8228 20.2491 14.8228Z" fill="white"/>
<path d="M5.24951 11.4686C4.83551 11.4686 4.49951 11.1326 4.49951 10.7186V9C4.49951 8.586 4.83551 8.25 5.24951 8.25C5.66351 8.25 5.99951 8.586 5.99951 9V10.7186C5.99951 11.1326 5.66389 11.4686 5.24951 11.4686Z" fill="white"/>
<path d="M3.74974 14.8226C3.54349 14.8226 3.33837 14.7383 3.19062 14.5725C2.91424 14.2639 2.94087 13.7895 3.24949 13.5135C4.04374 12.8029 4.49937 11.7844 4.49937 10.7183C4.49937 10.3043 4.83537 9.96826 5.24937 9.96826C5.66337 9.96826 5.99937 10.3043 5.99937 10.7183C5.99937 12.2104 5.36149 13.6365 4.24924 14.6314C4.10637 14.7596 3.92787 14.8226 3.74974 14.8226Z" fill="white"/>
<path d="M11.9995 22.4995C9.56014 22.4995 7.49951 20.4389 7.49951 17.9995C7.49951 17.5855 7.83551 17.2495 8.24951 17.2495C8.66351 17.2495 8.99951 17.5855 8.99951 17.9995C8.99951 19.6255 10.3731 20.9995 11.9995 20.9995C13.6259 20.9995 14.9995 19.6255 14.9995 17.9995C14.9995 17.5855 15.3355 17.2495 15.7495 17.2495C16.1635 17.2495 16.4995 17.5855 16.4995 17.9995C16.4995 20.4389 14.4389 22.4995 11.9995 22.4995Z" fill="white"/>
<path d="M5.24931 18.7499C4.01406 18.7499 2.92544 17.989 2.47581 16.8115C2.02506 15.6318 2.32881 14.3373 3.24943 13.5142C3.55843 13.2382 4.03244 13.2644 4.30843 13.5734C4.58443 13.8824 4.55781 14.356 4.24919 14.6324C3.69944 15.124 3.69644 15.8043 3.87681 16.2768C4.05644 16.7474 4.51168 17.2507 5.24931 17.2507C5.66331 17.2507 5.99931 17.5867 5.99931 18.0007C5.99931 18.4147 5.66369 18.7499 5.24931 18.7499Z" fill="white"/>
<path d="M18.7495 18.7495H5.24951C4.83551 18.7495 4.49951 18.4135 4.49951 17.9995C4.49951 17.5855 4.83551 17.2495 5.24951 17.2495H18.7495C19.1635 17.2495 19.4995 17.5855 19.4995 17.9995C19.4995 18.4135 19.1639 18.7495 18.7495 18.7495Z" fill="white"/>
</svg>
