<svg width="21" height="21" viewBox="0 0 21 21" fill="none" xmlns="http://www.w3.org/2000/svg">
<path d="M6.33333 3.83333V3H8V3.83333H13V3H14.6667V3.83333H15.9167C17.075 3.83333 18 4.76667 18 5.91667V15.9167C18 17.0667 17.075 18 15.9167 18H5.08333C3.93333 18 3 17.0667 3 15.9167V5.91667C3 4.76667 3.93333 3.83333 5.08333 3.83333H6.33333ZM6.33333 5.5H5.08333C4.85833 5.5 4.66667 5.68333 4.66667 5.91667V15.9167C4.66667 16.15 4.85833 16.3333 5.08333 16.3333H15.9167C16.15 16.3333 16.3333 16.15 16.3333 15.9167V5.91667C16.3333 5.68333 16.15 5.5 15.9167 5.5H14.6667V6.33333H13V5.5H8V6.33333H6.33333V5.5ZM6.33333 10.5H8V8.83333H6.33333V10.5ZM6.33333 13.8333H8V12.1667H6.33333V13.8333ZM9.66667 10.5H11.3333V8.83333H9.66667V10.5ZM9.66667 13.8333H11.3333V12.1667H9.66667V13.8333ZM13 10.5H14.6667V8.83333H13V10.5Z" fill="#8B98A5"/>
</svg>
