<svg width="310" height="304" viewBox="0 0 310 304" fill="none" xmlns="http://www.w3.org/2000/svg">
<circle cx="168.26" cy="167.482" r="124.861" fill="#332E61"/>
<circle cx="28.4583" cy="132.265" r="28.4583" fill="#423C7A"/>
<circle cx="83.2406" cy="18.4313" r="17.7865" fill="#423C7A"/>
<circle cx="279.247" cy="41.5537" r="13.8734" fill="#423C7A"/>
<circle cx="274.979" cy="250.011" r="6.75885" fill="#423C7A"/>
<path d="M200.807 49.5152C200.277 49.4024 200.277 48.6456 200.807 48.5328L208.825 46.8277C209.019 46.7866 209.17 46.636 209.212 46.4429L210.938 38.4811C211.052 37.9534 211.805 37.9534 211.92 38.4811L213.646 46.4429C213.688 46.636 213.839 46.7866 214.032 46.8277L222.051 48.5328C222.581 48.6456 222.581 49.4024 222.051 49.5152L214.032 51.2203C213.839 51.2614 213.688 51.412 213.646 51.6051L211.92 59.5669C211.805 60.0946 211.052 60.0946 210.938 59.5669L209.212 51.6051C209.17 51.412 209.019 51.2614 208.825 51.2203L200.807 49.5152Z" fill="#C4CBF5"/>
<path d="M21.1379 183.563C21.2971 182.811 22.3707 182.811 22.53 183.563L24.9082 194.799C24.9662 195.072 25.1793 195.287 25.4528 195.346L36.5726 197.769C37.3192 197.931 37.3193 198.996 36.5726 199.159L25.4528 201.582C25.1793 201.641 24.9662 201.856 24.9082 202.129L22.53 213.365C22.3707 214.117 21.2971 214.117 21.1379 213.365L18.7596 202.129C18.7017 201.856 18.4885 201.641 18.215 201.582L7.09528 199.159C6.34859 198.996 6.34859 197.931 7.09528 197.769L18.215 195.346C18.4885 195.287 18.7017 195.072 18.7596 194.799L21.1379 183.563Z" fill="#C4CBF5"/>
<path d="M201.116 281.637C201.275 280.885 202.349 280.885 202.508 281.637L203.895 288.192C203.953 288.466 204.166 288.68 204.44 288.74L210.946 290.157C211.692 290.319 211.692 291.384 210.946 291.547L204.44 292.964C204.166 293.024 203.953 293.238 203.895 293.512L202.508 300.067C202.349 300.819 201.275 300.819 201.116 300.067L199.728 293.512C199.67 293.238 199.457 293.024 199.184 292.964L192.678 291.547C191.932 291.384 191.932 290.319 192.678 290.157L199.184 288.74C199.457 288.68 199.67 288.466 199.728 288.192L201.116 281.637Z" fill="#C4CBF5"/>
<path d="M302.012 91.2378L214.939 74.5525C211.08 73.813 207.352 76.3419 206.612 80.201L184.303 196.625C183.882 198.82 184.518 201.086 186.019 202.742L226.483 247.374C228.832 249.966 232.717 250.465 235.646 248.551L282.806 217.732C284.421 216.677 285.539 215.01 285.902 213.115L307.661 99.5642C308.4 95.7051 305.871 91.9773 302.012 91.2378Z" fill="#423C7A" stroke="#C4CBF5" stroke-width="2.84583"/>
<path d="M240.395 115.548C233.953 114.171 227.624 118.226 226.261 124.605C225.161 129.754 224.592 142.412 242.049 159.06C242.362 159.356 242.75 159.56 243.172 159.65C243.593 159.74 244.031 159.712 244.438 159.57C267.173 151.509 271.826 139.724 272.926 134.574C274.289 128.195 270.169 121.908 263.727 120.532C257.285 119.156 250.566 125.04 250.566 125.04C250.566 125.04 246.837 116.924 240.395 115.548Z" fill="#C4CBF5"/>
<circle cx="233.357" cy="218.351" r="9.24896" fill="#C4CBF5"/>
<path d="M138.593 37.0717L22.5338 79.1089C18.1005 80.7147 15.8084 85.6103 17.4141 90.0435L72.6584 242.566C73.572 245.088 75.618 247.035 78.1828 247.821L158.361 272.405C162.374 273.636 166.686 271.766 168.532 267.996L203.02 197.526C204.037 195.446 204.167 193.043 203.378 190.866L149.528 42.1914C147.922 37.7581 143.027 35.466 138.593 37.0717Z" fill="#332E61" stroke="#C4CBF5" stroke-width="2.84583"/>
<path d="M100.25 111.506C100.673 111.34 100.993 110.984 101.113 110.546C101.113 110.546 101.113 110.546 101.113 110.546L101.114 110.543L101.12 110.521C101.126 110.501 101.135 110.468 101.148 110.424C101.174 110.337 101.214 110.204 101.269 110.031C101.379 109.685 101.548 109.181 101.78 108.563C102.245 107.323 102.958 105.634 103.95 103.84C105.958 100.205 108.983 96.3624 113.188 94.7121C121.806 91.3307 131.483 95.5103 134.818 104.01C136.208 107.551 137.889 113.885 136.532 122.921C135.175 131.967 130.761 143.809 119.819 158.334C119.582 158.645 119.263 158.886 118.899 159.029C118.534 159.172 118.137 159.212 117.751 159.145C99.8508 155.938 88.5614 150.258 81.4146 144.55C74.2748 138.847 71.1992 133.061 69.8099 129.52C66.4744 121.02 70.7267 111.374 79.3438 107.993C83.5494 106.343 88.3807 107.103 92.3249 108.402C94.2719 109.043 95.9431 109.796 97.1272 110.389C97.7181 110.684 98.1848 110.939 98.5004 111.117C98.6582 111.207 98.778 111.277 98.8566 111.324C98.8959 111.347 98.9248 111.364 98.943 111.375L98.9621 111.387L98.9648 111.389C98.9649 111.389 98.965 111.389 98.9651 111.389C98.9652 111.389 98.9653 111.389 98.9654 111.389C98.9654 111.389 98.9655 111.389 98.9655 111.389C99.3514 111.629 99.8276 111.672 100.25 111.506Z" fill="#C4CBF5" stroke="#C4CBF5" stroke-width="2.87977" stroke-linecap="round" stroke-linejoin="round"/>
<circle cx="146.914" cy="232.225" r="11.7391" fill="#C4CBF5"/>
</svg>
