<svg width="20" height="20" viewBox="0 0 20 20" fill="none" xmlns="http://www.w3.org/2000/svg">
<g clip-path="url(#clip0_2699_213)">
<path d="M19.9229 6.7983L16.7306 1.07626C16.6233 0.884027 16.4204 0.764832 16.2002 0.764832H3.80013C3.57995 0.764832 3.37703 0.883946 3.26974 1.07626L0.076965 6.7983C-0.044255 7.01556 -0.0206912 7.2848 0.136401 7.47776L9.52969 19.0112C9.53269 19.015 9.53617 19.0181 9.53925 19.0218C9.54896 19.0332 9.55901 19.0443 9.56961 19.055C9.57083 19.0562 9.57188 19.0576 9.5731 19.0588C9.57585 19.0615 9.57868 19.064 9.58152 19.0666C9.58249 19.0676 9.58354 19.0683 9.58451 19.0693C9.59528 19.0794 9.60638 19.0891 9.61787 19.0985C9.62314 19.1028 9.62848 19.1071 9.63391 19.1112C9.64565 19.1201 9.65779 19.1285 9.67018 19.1366C9.67601 19.1404 9.68176 19.1442 9.68768 19.1478C9.69812 19.1541 9.70897 19.1598 9.71982 19.1656C9.72428 19.1678 9.72857 19.1703 9.7331 19.1725C9.73723 19.1746 9.74128 19.1766 9.74541 19.1785C9.75748 19.1841 9.76995 19.1889 9.78258 19.1938C9.79043 19.1968 9.79813 19.2001 9.80614 19.2029C9.80768 19.2034 9.80898 19.2041 9.81051 19.2046C9.81108 19.2048 9.81165 19.2048 9.81221 19.205C9.81756 19.2068 9.82331 19.2078 9.82881 19.2094C9.8493 19.2155 9.87011 19.2204 9.89117 19.2243C9.89991 19.2259 9.90858 19.2275 9.9174 19.2287C9.94242 19.2322 9.96777 19.2344 9.99336 19.2347C9.99571 19.2347 9.99805 19.2353 10.0005 19.2353H10.0006C10.0031 19.2353 10.0054 19.2347 10.0078 19.2347C10.0334 19.2344 10.0588 19.2322 10.0838 19.2287C10.0926 19.2275 10.1011 19.2259 10.1098 19.2244C10.1311 19.2205 10.1521 19.2155 10.1726 19.2093C10.1779 19.2078 10.1834 19.2068 10.1887 19.2051C10.1893 19.2048 10.19 19.2048 10.1905 19.2046C10.1922 19.2041 10.1934 19.2034 10.195 19.2028C10.2029 19.2001 10.2105 19.1968 10.2182 19.1939C10.2309 19.1891 10.2435 19.1842 10.2556 19.1786C10.2598 19.1767 10.2641 19.1746 10.2682 19.1725C10.2725 19.1704 10.2766 19.168 10.2807 19.1659C10.2917 19.1601 10.3027 19.1543 10.3132 19.148C10.3192 19.1444 10.325 19.1405 10.331 19.1366C10.3433 19.1286 10.3555 19.1202 10.367 19.1114C10.3725 19.1073 10.3778 19.103 10.3831 19.0986C10.3948 19.0892 10.4058 19.0794 10.4166 19.0693C10.4177 19.0682 10.4188 19.0674 10.4199 19.0665C10.4223 19.0641 10.4249 19.0619 10.4273 19.0595C10.4287 19.0581 10.4299 19.0566 10.4313 19.0552C10.4421 19.0443 10.4524 19.0329 10.4623 19.0212C10.4652 19.0178 10.4684 19.0148 10.4713 19.0113L19.8635 7.47776C20.0206 7.2848 20.0442 7.01556 19.9229 6.7983ZM11.1988 1.97954L12.9189 6.48695H7.08181L8.80245 1.97954H11.1988ZM12.9613 7.70158L10.0006 16.6872L7.03954 7.70158H12.9613ZM5.7607 7.70158L8.39434 15.6938L1.88522 7.70158H5.7607ZM14.2401 7.70158H18.1149L11.6069 15.6935L14.2401 7.70158ZM18.3583 6.48695H14.219L12.4989 1.97954H15.8437L18.3583 6.48695ZM4.15666 1.97954H7.50232L5.78175 6.48695H1.64165L4.15666 1.97954Z" fill="url(#paint0_linear_2699_213)"/>
</g>
<defs>
<linearGradient id="paint0_linear_2699_213" x1="4.09089" y1="1.06929" x2="8.71014" y2="21.5524" gradientUnits="userSpaceOnUse">
<stop stop-color="#E1DD65"/>
<stop offset="0.530983" stop-color="#666666"/>
<stop offset="1" stop-color="#E1DD65"/>
</linearGradient>
<clipPath id="clip0_2699_213">
<rect width="20" height="20" fill="white"/>
</clipPath>
</defs>
</svg>
