<svg width="24" height="24" viewBox="0 0 24 24" fill="none" xmlns="http://www.w3.org/2000/svg">
<path d="M4.71094 20.25H19.2891C20.8399 20.25 22.1016 18.9883 22.1016 17.4375V2.8125C22.1016 1.26169 20.8399 0 19.2891 0H4.71094C3.16013 0 1.89844 1.26169 1.89844 2.8125V21.1875C1.89844 22.7383 3.16013 24 4.71094 24H18.3516H19.2891C20.8399 24 22.1016 22.7383 22.1016 21.1875V21.1852C21.3176 21.775 20.3435 22.125 19.2891 22.125H18.3516H4.71094C4.194 22.125 3.77344 21.7044 3.77344 21.1875C3.77344 20.6706 4.194 20.25 4.71094 20.25ZM3.77344 2.8125C3.77344 2.29556 4.194 1.875 4.71094 1.875H19.2891C19.806 1.875 20.2266 2.29556 20.2266 2.8125V17.4375C20.2266 17.9544 19.806 18.375 19.2891 18.375H4.71094C4.38239 18.375 4.06678 18.4316 3.77344 18.5356V2.8125ZM10.4297 7.90219H8.55469C8.55469 6.94041 8.96691 6.01983 9.68569 5.37637C10.4139 4.72444 11.3935 4.41281 12.3735 4.52166C13.9435 4.69589 15.2077 5.95683 15.3795 7.51997C15.5362 8.94562 14.7002 9.96863 14.0577 10.6141C13.8923 10.7802 13.7397 10.9258 13.605 11.0543C12.9924 11.6385 12.9143 11.7368 12.9143 12.1404V12.1875H11.0393V12.1404C11.0393 10.9101 11.6287 10.3481 12.311 9.69731C12.4436 9.57089 12.5807 9.44016 12.7288 9.29133C13.3343 8.68303 13.5697 8.21456 13.5158 7.72481C13.4391 7.02684 12.8717 6.46345 12.1667 6.38522C11.7099 6.33469 11.2726 6.47231 10.9363 6.77344C10.6096 7.06584 10.4297 7.46672 10.4297 7.90219ZM11.0391 13.5938H12.9141V15.4688H11.0391V13.5938Z" fill="#A2A1B7"/>
</svg>
