<svg width="24" height="24" viewBox="0 0 24 24" fill="none" xmlns="http://www.w3.org/2000/svg">
<mask id="mask0_426_1062" style="mask-type:luminance" maskUnits="userSpaceOnUse" x="0" y="0" width="24" height="24">
<path d="M0 0H24V24H0V0Z" fill="white"/>
</mask>
<g mask="url(#mask0_426_1062)">
<path d="M18.7452 19.83H5.63512C5.35457 19.8313 5.07651 19.7772 4.81693 19.6707C4.55736 19.5643 4.32136 19.4076 4.12252 19.2097C3.92367 19.0118 3.76588 18.7765 3.65821 18.5174C3.55054 18.2584 3.49512 17.9806 3.49512 17.7V9.07996C3.49771 8.88185 3.57756 8.6926 3.71766 8.5525C3.85775 8.41241 4.04701 8.33255 4.24512 8.32996H20.0752C20.2741 8.32996 20.4648 8.40898 20.6055 8.54963C20.7461 8.69028 20.8252 8.88105 20.8252 9.07996V17.7C20.8253 18.2564 20.6078 18.7907 20.2191 19.1887C19.8304 19.5868 19.3014 19.8169 18.7452 19.83ZM5.04512 9.82996V17.7C5.04775 17.868 5.11633 18.0282 5.23607 18.1461C5.35581 18.264 5.5171 18.33 5.68512 18.33H18.7452C18.9122 18.33 19.0725 18.2636 19.1906 18.1455C19.3088 18.0273 19.3752 17.8671 19.3752 17.7V9.82996H5.04512Z" fill="#A2A1B7"/>
<path d="M15.0054 14.8299C14.8065 14.8299 14.6157 14.7509 14.475 14.6102C14.3344 14.4696 14.2554 14.2788 14.2554 14.0799V9.21993L12.8954 5.66992H3.06537L4.88537 8.66992C4.94703 8.75398 4.99049 8.84998 5.01297 8.95179C5.03545 9.05359 5.03646 9.15896 5.01593 9.26118C4.9954 9.36339 4.95379 9.46021 4.89375 9.54544C4.83371 9.63068 4.75656 9.70244 4.66722 9.75618C4.57788 9.80993 4.47832 9.84446 4.3749 9.85757C4.27147 9.87067 4.16644 9.86207 4.06652 9.83231C3.96661 9.80255 3.87399 9.75228 3.79459 9.68472C3.71518 9.61716 3.65074 9.53378 3.60537 9.43992L1.10537 5.29992C1.03646 5.18697 1 5.05724 1 4.92493C1 4.79262 1.03646 4.66287 1.10537 4.54993C1.16815 4.43501 1.2607 4.33908 1.3733 4.27222C1.4859 4.20537 1.61441 4.17003 1.74537 4.16992H13.4154C13.5669 4.16986 13.7148 4.21569 13.8398 4.30137C13.9648 4.38705 14.0608 4.50857 14.1154 4.64992L15.7454 8.80993C15.7811 8.89534 15.7981 8.98738 15.7954 9.07992V14.0799C15.797 14.1823 15.7773 14.2839 15.7377 14.3783C15.698 14.4726 15.6392 14.5578 15.565 14.6283C15.4907 14.6988 15.4026 14.7531 15.3063 14.7878C15.21 14.8225 15.1075 14.8368 15.0054 14.8299Z" fill="#A2A1B7"/>
<path d="M20.0756 9.82993H15.0756C14.953 9.83058 14.8321 9.80078 14.7239 9.74318C14.6157 9.68558 14.5235 9.60199 14.4556 9.49993C14.385 9.39898 14.3415 9.28162 14.3292 9.15906C14.317 9.0365 14.3364 8.91285 14.3856 8.79993L16.0456 4.63993C16.1017 4.50045 16.1984 4.38106 16.3233 4.29725C16.4481 4.21344 16.5952 4.16908 16.7456 4.16993H21.7456C21.8681 4.16927 21.989 4.19908 22.0972 4.25669C22.2054 4.31429 22.2976 4.39787 22.3656 4.49993C22.4352 4.60113 22.4789 4.71789 22.4929 4.83995C22.5068 4.96201 22.4906 5.08562 22.4456 5.19993L20.7456 9.35993C20.6925 9.49549 20.6006 9.61238 20.4814 9.69598C20.3623 9.77958 20.2211 9.82617 20.0756 9.82993ZM16.1856 8.32993H19.5756L20.6356 5.66993H17.2556L16.1856 8.32993Z" fill="#A2A1B7"/>
</g>
</svg>
