<svg width="24" height="24" viewBox="0 0 24 24" fill="none" xmlns="http://www.w3.org/2000/svg">
<path d="M20.115 3.88504C17.6016 1.37163 13.512 1.37167 10.9986 3.88504C9.28193 5.60168 8.68583 8.13211 9.42884 10.4274L2.17168 17.6846C2.06176 17.7944 2 17.9435 2 18.0989V21.414C2 21.7377 2.26238 22 2.58602 22H5.9011C6.05657 22 6.20555 21.9383 6.31551 21.8283L7.14442 20.9994C7.27102 20.8728 7.33282 20.6953 7.31212 20.5174L7.20868 19.6274L8.44243 19.5111C8.72259 19.4847 8.94446 19.2629 8.97087 18.9827L9.08724 17.7488L9.97728 17.8522C10.1435 17.8717 10.3098 17.819 10.4347 17.7078C10.5595 17.5966 10.631 17.4374 10.631 17.2701V16.1788H11.7025C11.8567 16.1788 12.0047 16.118 12.1145 16.0096L13.5704 14.5704C15.8662 15.3146 18.3979 14.7186 20.115 13.0014C22.6284 10.4881 22.6284 6.3984 20.115 3.88504ZM19.2862 12.1727C17.8071 13.6518 15.5883 14.1135 13.6338 13.349C13.4181 13.2647 13.173 13.3152 13.0083 13.478L11.4617 15.0068H10.0449C9.7213 15.0068 9.45892 15.2692 9.45892 15.5928V16.6121L8.62767 16.5154C8.47107 16.4973 8.3138 16.5429 8.19126 16.642C8.06876 16.7412 7.99134 16.8856 7.97653 17.0425L7.84946 18.3897L6.50235 18.5167C6.3454 18.5315 6.20106 18.6089 6.10184 18.7314C6.00266 18.8539 5.957 19.0113 5.9752 19.1678L6.11512 20.3711L5.65833 20.828H3.17199V18.3417L10.5195 10.9942C10.6842 10.8296 10.7358 10.5831 10.651 10.3663C9.88642 8.41172 10.3482 6.19305 11.8273 4.71387C13.8838 2.65746 17.2298 2.65746 19.2862 4.71387C21.3426 6.77024 21.3426 10.1163 19.2862 12.1727Z" fill="white"/>
<path d="M18.4574 5.54244C17.772 4.85693 16.6566 4.85697 15.9711 5.54244C15.2857 6.22791 15.2857 7.34326 15.9711 8.02873C16.6566 8.7142 17.772 8.71428 18.4574 8.02873C19.1429 7.34326 19.1429 6.22791 18.4574 5.54244ZM17.6287 7.19998C17.4002 7.42846 17.0284 7.4285 16.7999 7.19998C16.5714 6.9715 16.5714 6.59974 16.7999 6.37123C17.029 6.14216 17.3996 6.14216 17.6287 6.37123C17.8577 6.60029 17.8577 6.97092 17.6287 7.19998Z" fill="white"/>
</svg>
