<svg width="24" height="24" viewBox="0 0 24 24" fill="none" xmlns="http://www.w3.org/2000/svg">
<path d="M16.3335 21.0625C16.3335 21.3111 16.2314 21.5496 16.0497 21.7254C15.868 21.9012 15.6215 22 15.3645 22H6.22989C5.37357 21.9991 4.55259 21.6695 3.94708 21.0837C3.34156 20.4978 3.00096 19.7035 3 18.875V5.125C3.00096 4.29648 3.34156 3.50217 3.94708 2.91632C4.55259 2.33047 5.37357 2.00093 6.22989 2H15.3645C15.6215 2 15.868 2.09877 16.0497 2.27459C16.2314 2.4504 16.3335 2.68886 16.3335 2.9375C16.3335 3.18614 16.2314 3.4246 16.0497 3.60041C15.868 3.77623 15.6215 3.875 15.3645 3.875H6.22989C5.88736 3.87536 5.55896 4.00717 5.31675 4.24152C5.07455 4.47586 4.93831 4.79359 4.93793 5.125V18.875C4.9383 19.2064 5.07453 19.5242 5.31674 19.7585C5.55895 19.9928 5.88736 20.1246 6.22989 20.125H15.3645C15.6215 20.125 15.868 20.2238 16.0497 20.3996C16.2314 20.5754 16.3335 20.8139 16.3335 21.0625ZM20.7162 11.3371L16.1115 6.88195C16.0219 6.7933 15.915 6.72273 15.7971 6.67433C15.6791 6.62592 15.5523 6.60065 15.4242 6.59996C15.296 6.59927 15.169 6.62319 15.0504 6.67033C14.9319 6.71747 14.8242 6.78689 14.7336 6.87457C14.643 6.96226 14.5712 7.06646 14.5225 7.18116C14.4738 7.29585 14.4491 7.41875 14.4498 7.54275C14.4506 7.66674 14.4767 7.78937 14.5268 7.90352C14.5768 8.01767 14.6497 8.12109 14.7414 8.20777L17.6918 11.0625H10.0637C9.80675 11.0625 9.56029 11.1613 9.37857 11.3371C9.19685 11.5129 9.09477 11.7514 9.09477 12C9.09477 12.2486 9.19685 12.4871 9.37857 12.6629C9.56029 12.8387 9.80675 12.9375 10.0637 12.9375H17.6917L14.7412 15.7922C14.6508 15.8792 14.5791 15.9825 14.5301 16.0964C14.481 16.2102 14.4557 16.3323 14.4556 16.4556C14.4554 16.579 14.4804 16.7011 14.5291 16.8151C14.5778 16.929 14.6492 17.0326 14.7394 17.1198C14.8295 17.207 14.9365 17.2762 15.0543 17.3233C15.1721 17.3704 15.2984 17.3946 15.4258 17.3944C15.5533 17.3942 15.6795 17.3697 15.7972 17.3223C15.9148 17.2749 16.0217 17.2055 16.1115 17.118L20.7162 12.6629C20.8979 12.4871 21 12.2487 21 12C21 11.7514 20.8979 11.5129 20.7162 11.3371Z" fill="white"/>
</svg>
