<svg width="24" height="24" viewBox="0 0 24 24" fill="none" xmlns="http://www.w3.org/2000/svg">
<g clip-path="url(#clip0_3347_491)">
<path d="M23.9075 8.15813L20.0767 1.29169C19.9479 1.061 19.7044 0.917969 19.4402 0.917969H4.56015C4.29595 0.917969 4.05244 1.06091 3.92369 1.29169L0.092358 8.15813C-0.053106 8.41884 -0.0248294 8.74193 0.163681 8.97349L11.4356 22.8137C11.4392 22.8181 11.4434 22.8219 11.4471 22.8263C11.4588 22.84 11.4708 22.8533 11.4835 22.8661C11.485 22.8676 11.4863 22.8693 11.4877 22.8708C11.491 22.874 11.4944 22.877 11.4978 22.8801C11.499 22.8813 11.5002 22.8822 11.5014 22.8833C11.5143 22.8955 11.5277 22.9071 11.5415 22.9184C11.5478 22.9235 11.5542 22.9287 11.5607 22.9337C11.5748 22.9443 11.5894 22.9544 11.6042 22.9641C11.6112 22.9686 11.6181 22.9732 11.6252 22.9776C11.6377 22.9851 11.6508 22.992 11.6638 22.9989C11.6691 23.0016 11.6743 23.0046 11.6797 23.0072C11.6847 23.0096 11.6895 23.0121 11.6945 23.0144C11.709 23.0211 11.7239 23.0268 11.7391 23.0327C11.7485 23.0364 11.7578 23.0403 11.7674 23.0437C11.7692 23.0442 11.7708 23.0451 11.7726 23.0457C11.7733 23.0459 11.774 23.046 11.7747 23.0462C11.7811 23.0483 11.788 23.0495 11.7946 23.0514C11.8192 23.0587 11.8441 23.0646 11.8694 23.0693C11.8799 23.0712 11.8903 23.0732 11.9009 23.0746C11.9309 23.0788 11.9613 23.0814 11.992 23.0818C11.9948 23.0818 11.9977 23.0825 12.0006 23.0825H12.0008C12.0037 23.0825 12.0065 23.0818 12.0093 23.0818C12.0401 23.0814 12.0705 23.0788 12.1006 23.0746C12.1111 23.0732 12.1214 23.0712 12.1318 23.0694C12.1573 23.0647 12.1825 23.0587 12.2072 23.0513C12.2135 23.0495 12.2201 23.0483 12.2264 23.0463C12.2272 23.046 12.228 23.046 12.2286 23.0457C12.2306 23.0451 12.2321 23.0442 12.234 23.0436C12.2435 23.0403 12.2525 23.0364 12.2619 23.0329C12.277 23.027 12.2922 23.0212 12.3068 23.0145C12.3118 23.0122 12.3169 23.0096 12.3218 23.0072C12.327 23.0047 12.3319 23.0018 12.3369 22.9992C12.3501 22.9923 12.3632 22.9853 12.3759 22.9778C12.383 22.9734 12.39 22.9687 12.3972 22.9641C12.412 22.9545 12.4266 22.9444 12.4404 22.9338C12.447 22.9289 12.4534 22.9237 12.4597 22.9185C12.4737 22.9072 12.487 22.8955 12.4999 22.8833C12.5012 22.8821 12.5026 22.8811 12.5038 22.8799C12.5067 22.8771 12.5099 22.8745 12.5128 22.8716C12.5144 22.8699 12.5159 22.8681 12.5175 22.8664C12.5305 22.8533 12.5429 22.8396 12.5547 22.8256C12.5582 22.8215 12.5621 22.8179 12.5655 22.8137L23.8362 8.97349C24.0247 8.74193 24.053 8.41884 23.9075 8.15813ZM13.4386 2.37562L15.5027 7.78451H8.49817L10.5629 2.37562H13.4386ZM15.5535 9.24206L12.0007 20.0248L8.44745 9.24206H15.5535ZM6.91284 9.24206L10.0732 18.8327L2.26227 9.24206H6.91284ZM17.0881 9.24206H21.7378L13.9282 18.8324L17.0881 9.24206ZM22.0299 7.78451H17.0628L14.9987 2.37562H19.0124L22.0299 7.78451ZM4.98799 2.37562H9.00278L6.9381 7.78451H1.96998L4.98799 2.37562Z" fill="white"/>
</g>
<defs>
<clipPath id="clip0_3347_491">
<rect width="24" height="24" fill="white"/>
</clipPath>
</defs>
</svg>
