<svg width="24" height="24" viewBox="0 0 24 24" fill="none" xmlns="http://www.w3.org/2000/svg">
<path fill-rule="evenodd" clip-rule="evenodd" d="M19.5 6.16673H4.50009L4.46099 6.16669C4.30533 6.16642 4.05072 6.16595 3.82083 6.19685C3.52255 6.23697 3.03259 6.35462 2.61029 6.77693C2.18799 7.19923 2.07029 7.68919 2.03021 7.98747C1.99931 8.21735 1.99978 8.47196 2.00006 8.62763L2.0001 8.66673V9.50005L2.00006 9.53915C1.99978 9.69485 1.99931 9.94942 2.03021 10.1793C2.07033 10.4776 2.18799 10.9675 2.61029 11.3898C2.96623 11.7457 3.37017 11.8853 3.66697 11.9443C3.66849 13.7109 3.68123 15.1874 3.78712 16.3957C3.90748 17.7685 4.15556 18.9223 4.7399 19.8168C5.35208 20.7541 6.25985 21.3006 7.45602 21.609C8.62001 21.9092 10.1168 22 12 22C13.8833 22 15.3801 21.9092 16.5441 21.609C17.7403 21.3006 18.648 20.7541 19.2602 19.8168C19.8446 18.9223 20.0927 17.7685 20.2131 16.3957C20.319 15.1874 20.3317 13.7109 20.3332 11.9443C20.63 11.8852 21.034 11.7457 21.3899 11.3898C21.8123 10.9675 21.9299 10.4776 21.97 10.1793C22.0009 9.94942 22.0004 9.69481 22.0001 9.53915L22.0001 9.50005V8.66673L22.0001 8.62763C22.0004 8.47196 22.0009 8.21735 21.97 7.98747C21.9299 7.68919 21.8123 7.19923 21.3899 6.77693C20.9676 6.35462 20.4776 6.23697 20.1794 6.19685C19.9495 6.16595 19.6949 6.16638 19.5392 6.16669L19.5 6.16673ZM19.5028 10.3334C19.8938 10.3334 20.0896 10.3331 20.2114 10.2113C20.3334 10.0893 20.3334 9.89286 20.3334 9.50005V8.66673C20.3334 8.27388 20.3334 8.07747 20.2114 7.95544C20.0893 7.83341 19.8929 7.83341 19.5001 7.83341H4.50009C4.10724 7.83341 3.91083 7.83341 3.7888 7.95544C3.66677 8.07747 3.66677 8.27392 3.66677 8.66673V9.50005C3.66677 9.8929 3.66677 10.0893 3.7888 10.2113C3.91072 10.3332 4.10689 10.3334 4.49892 10.3334H19.5028ZM18.6664 12C18.6645 13.7446 18.6509 15.1308 18.5527 16.2502C18.4387 17.551 18.218 18.3648 17.8648 18.9054C17.5396 19.4034 17.0411 19.7597 16.1278 19.9952C15.1825 20.239 13.8668 20.3334 12 20.3334C10.1332 20.3334 8.81758 20.239 7.8722 19.9952C6.95899 19.7597 6.46052 19.4034 6.13521 18.9054C5.78204 18.3648 5.56142 17.551 5.44736 16.2502C5.34923 15.1308 5.33556 13.7446 5.33368 12H18.6664Z" fill="#A3A4AF"/>
<path fill-rule="evenodd" clip-rule="evenodd" d="M9.91671 2C10.7328 2 11.4707 2.33519 12 2.87543C12.5294 2.33519 13.2673 2 14.0833 2C15.6942 2 17 3.30582 17 4.91668C17 6.52753 15.6942 7.83335 14.0833 7.83335H12.8334V20.3333H11.1667V7.83335H9.91668C8.30586 7.83335 7 6.52753 7 4.91668C7 3.30582 8.3059 2 9.91671 2ZM12.8334 4.91664V6.16663H14.0833C14.2294 6.16663 14.3697 6.14156 14.5 6.0955C14.9855 5.9239 15.3333 5.46089 15.3333 4.91664C15.3333 4.22629 14.7737 3.66664 14.0833 3.66664C13.5391 3.66664 13.0761 4.01449 12.9045 4.49996C12.8585 4.63031 12.8334 4.77054 12.8334 4.91664ZM8.66672 4.91664C8.66672 5.46089 9.01457 5.9239 9.50004 6.0955C9.63035 6.14156 9.77058 6.16663 9.91671 6.16663H11.1667V4.91664C11.1667 4.77054 11.1416 4.63031 11.0956 4.49996C10.924 4.01445 10.461 3.66664 9.91671 3.66664C9.22636 3.66664 8.66672 4.22629 8.66672 4.91664Z" fill="#A3A4AF"/>
</svg>
