<svg width="40" height="40" viewBox="0 0 40 40" fill="none" xmlns="http://www.w3.org/2000/svg">
<circle cx="20" cy="20" r="20" fill="#3465E5"/>
<path d="M16.5343 12.9702C16.3265 12.9656 16.1224 13.0259 15.9505 13.1426C15.7785 13.2594 15.6472 13.4269 15.5748 13.6218C15.5024 13.8166 15.4925 14.0291 15.5465 14.2299C15.6005 14.4306 15.7157 14.6094 15.8761 14.7416L21.9952 19.9838L15.8761 25.2241C15.7651 25.3057 15.6722 25.4092 15.6032 25.5283C15.5341 25.6474 15.4904 25.7795 15.4747 25.9163C15.4591 26.0531 15.4719 26.1916 15.5122 26.3232C15.5526 26.4549 15.6197 26.5768 15.7094 26.6813C15.799 26.7858 15.9093 26.8705 16.0333 26.9304C16.1572 26.9903 16.2922 27.0239 16.4298 27.0293C16.5674 27.0346 16.7046 27.0115 16.8328 26.9613C16.961 26.9111 17.0775 26.835 17.1749 26.7378L24.1808 20.7436C24.2908 20.6497 24.3791 20.5332 24.4397 20.4018C24.5003 20.2705 24.5317 20.1275 24.5317 19.9829C24.5317 19.8383 24.5003 19.6953 24.4397 19.564C24.3791 19.4326 24.2908 19.316 24.1808 19.2221L17.1749 13.2221C16.9979 13.0649 16.7709 12.9758 16.5343 12.9702Z" fill="white"/>
</svg>
