<svg width="219" height="268" viewBox="0 0 219 268" fill="none" xmlns="http://www.w3.org/2000/svg">
<g filter="url(#filter0_f_2044_1487)">
<rect x="35.126" y="224.44" width="147.56" height="14.28" fill="#1B3554"/>
</g>
<rect x="36.3154" y="29.28" width="147.56" height="94.01" fill="#332E61"/>
<path fill-rule="evenodd" clip-rule="evenodd" d="M36.3156 29.28V172.08H12.5156V85.7296L24.4175 67.4628L36.3156 29.28Z" fill="#3E3972"/>
<path fill-rule="evenodd" clip-rule="evenodd" d="M182.685 29.28V172.08H206.485V85.7296L194.583 67.4628L182.685 29.28Z" fill="#3E3972"/>
<path d="M12.5156 85.2101H206.486V248C206.486 250.762 204.247 253 201.486 253H17.5156C14.7542 253 12.5156 250.762 12.5156 248V85.2101Z" fill="#100E1F"/>
<path fill-rule="evenodd" clip-rule="evenodd" d="M70.8252 151.312C70.8252 150.479 71.2529 149.705 71.9927 149.322C73.6394 148.472 76.7854 147.09 79.8427 147.09C82.899 147.09 85.9552 148.471 87.5477 149.322C88.2653 149.705 88.6752 150.464 88.6752 151.277C88.6752 153.194 86.4686 154.45 84.6657 153.801C83.2175 153.279 81.5146 152.857 79.7978 152.857C78.047 152.857 76.2962 153.296 74.812 153.832C73.0126 154.481 70.8252 153.225 70.8252 151.312Z" fill="white"/>
<path fill-rule="evenodd" clip-rule="evenodd" d="M89.5186 181.55C89.5186 180.833 89.8899 180.17 90.518 179.823C93.3757 178.248 101.907 173.963 110.156 173.963C118.401 173.963 126.647 178.245 129.404 179.822C130.013 180.17 130.369 180.82 130.369 181.521C130.369 183.142 128.543 184.182 127.095 183.455C123.305 181.553 116.725 178.836 110.053 178.836C103.339 178.836 96.6249 181.587 92.782 183.491C91.3323 184.209 89.5186 183.168 89.5186 181.55Z" fill="white"/>
<path fill-rule="evenodd" clip-rule="evenodd" d="M131.515 151.312C131.515 150.479 131.942 149.705 132.682 149.323C134.329 148.472 137.475 147.09 140.532 147.09C143.588 147.09 146.645 148.471 148.237 149.322C148.955 149.705 149.365 150.464 149.365 151.277C149.365 153.194 147.158 154.45 145.355 153.801C143.907 153.279 142.204 152.857 140.487 152.857C138.736 152.857 136.986 153.296 135.501 153.832C133.702 154.481 131.515 153.225 131.515 151.312Z" fill="white"/>
<circle opacity="0.149343" cx="66.0648" cy="103.06" r="7.14" fill="white"/>
<circle opacity="0.149343" cx="152.935" cy="103.06" r="7.14" fill="white"/>
<path d="M66.0654 102.694V58.435C66.0654 34.4465 85.5119 15 109.5 15C133.489 15 152.935 34.4465 152.935 58.435V102.694" stroke="white" stroke-width="5" stroke-linecap="round" stroke-linejoin="round"/>
<defs>
<filter id="filter0_f_2044_1487" x="10.939" y="200.253" width="195.933" height="62.6539" filterUnits="userSpaceOnUse" color-interpolation-filters="sRGB">
<feFlood flood-opacity="0" result="BackgroundImageFix"/>
<feBlend mode="normal" in="SourceGraphic" in2="BackgroundImageFix" result="shape"/>
<feGaussianBlur stdDeviation="12.0935" result="effect1_foregroundBlur_2044_1487"/>
</filter>
</defs>
</svg>
