<svg width="810" height="804" viewBox="0 0 810 804" fill="none" xmlns="http://www.w3.org/2000/svg">
<g id="No Upcoming Trips">
<g id="Group 3">
<mask id="mask0_2044_1440" style="mask-type:luminance" maskUnits="userSpaceOnUse" x="75" y="174" width="679" height="387">
<path id="Clip 2" fill-rule="evenodd" clip-rule="evenodd" d="M242.661 242.616H155.805C144.519 242.616 135.288 251.877 135.288 263.199C135.288 274.521 144.519 283.782 155.805 283.782H200.007H212.961C224.247 283.782 233.478 293.046 233.478 304.368C233.478 310.026 231.165 315.183 227.445 318.9C223.74 322.635 218.598 324.954 212.961 324.954H185.325H170.067H95.6225C84.3365 324.954 75.1055 334.218 75.1055 345.537C75.1055 356.856 84.3365 366.12 95.6225 366.12H148.917C132.828 404.055 123.918 445.794 123.918 489.63C123.918 505.533 125.094 521.163 127.35 536.436C128.292 542.817 129.429 549.144 130.758 555.402C169.467 549.462 210.528 544.683 253.395 541.197L256.62 544.149L259.656 540.705C311.157 536.685 365.211 534.543 420.963 534.543C539.415 534.543 650.259 544.203 745.032 561C748.686 545.112 751.149 528.765 752.313 512.052C752.844 504.642 753.105 497.163 753.105 489.63C753.105 315.306 612.264 174 438.513 174C364.461 174 296.4 199.671 242.661 242.616Z" fill="white"/>
</mask>
<g mask="url(#mask0_2044_1440)">
<path id="Fill 1" fill-rule="evenodd" clip-rule="evenodd" d="M60.1055 576H768.105V159H60.1055V576Z" fill="#332E61"/>
</g>
</g>
<g id="Group 6">
<mask id="mask1_2044_1440" style="mask-type:luminance" maskUnits="userSpaceOnUse" x="0" y="324" width="55" height="42">
<path id="Clip 5" fill-rule="evenodd" clip-rule="evenodd" d="M20.8865 324C9.45647 324 0.105469 333.453 0.105469 345C0.105469 356.547 9.45647 366 20.8865 366H33.3215C44.7545 366 54.1055 356.547 54.1055 345C54.1055 333.453 44.7545 324 33.3215 324H20.8865Z" fill="white"/>
</mask>
<g mask="url(#mask1_2044_1440)">
<path id="Fill 4" fill-rule="evenodd" clip-rule="evenodd" d="M-14.8945 381H69.1055V309H-14.8945V381Z" fill="#332E61"/>
</g>
</g>
<g id="Group 9">
<mask id="mask2_2044_1440" style="mask-type:luminance" maskUnits="userSpaceOnUse" x="130" y="534" width="680" height="270">
<path id="Clip 8" fill-rule="evenodd" clip-rule="evenodd" d="M259.201 541.119L256.162 544.542L252.937 541.608C210.082 545.073 169.033 549.816 130.33 555.723C160.483 697.569 286.783 804 438.01 804C508.819 804 574.156 780.654 626.737 741.273H682.708C693.988 741.273 703.219 732.066 703.219 720.819C703.219 715.203 700.906 710.073 697.189 706.38C693.481 702.669 688.339 700.365 682.708 700.365H658.366C647.083 700.365 637.852 691.161 637.852 679.911C637.852 674.292 640.165 669.165 643.882 665.469C647.59 661.758 652.732 659.457 658.366 659.457H789.385C800.668 659.457 809.896 650.253 809.896 639C809.896 633.381 807.583 628.254 803.866 624.561C800.146 620.85 795.028 618.546 789.385 618.546H725.14C733.345 600.315 739.855 581.169 744.46 561.288C649.708 544.599 538.891 534.996 420.466 534.996C364.729 534.996 310.684 537.123 259.201 541.119Z" fill="white"/>
</mask>
<g mask="url(#mask2_2044_1440)">
<path id="Fill 7" fill-rule="evenodd" clip-rule="evenodd" d="M115.33 819H824.893V519.996H115.33V819Z" fill="#100E1F"/>
</g>
</g>
<g id="Group 12">
<mask id="mask3_2044_1440" style="mask-type:luminance" maskUnits="userSpaceOnUse" x="261" y="498" width="493" height="63">
<path id="Clip 11" fill-rule="evenodd" clip-rule="evenodd" d="M692.43 537.912L660.756 508.881L626.862 534.039L612.654 514.464L556.566 534.039L427.359 514.464L352.254 535.2C375.219 534.432 398.553 534.039 422.196 534.039C540.489 534.039 651.19 543.882 745.839 561C749.481 544.806 751.944 528.15 753.105 511.119L742.383 498L692.43 537.912ZM261.105 540.318C290.697 537.96 321.132 536.238 352.254 535.2L296.772 498.996L261.105 540.318Z" fill="white"/>
</mask>
<g mask="url(#mask3_2044_1440)">
<path id="Fill 10" fill-rule="evenodd" clip-rule="evenodd" d="M252.105 576H774.105V483H252.105V576Z" fill="#100E1F"/>
</g>
</g>
<g id="Group 15">
<mask id="mask4_2044_1440" style="mask-type:luminance" maskUnits="userSpaceOnUse" x="252" y="540" width="7" height="4">
<path id="Clip 14" fill-rule="evenodd" clip-rule="evenodd" d="M252.105 540.432L255.195 543.003L258.105 540C256.101 540.132 254.094 540.276 252.105 540.432Z" fill="white"/>
</mask>
<g mask="url(#mask4_2044_1440)">
<path id="Fill 13" fill-rule="evenodd" clip-rule="evenodd" d="M237.105 558H273.105V525H237.105V558Z" fill="#332E61"/>
</g>
</g>
<g id="Group 18">
<mask id="mask5_2044_1440" style="mask-type:luminance" maskUnits="userSpaceOnUse" x="126" y="486" width="127" height="69">
<path id="Clip 17" fill-rule="evenodd" clip-rule="evenodd" d="M126.105 536.004C127.047 542.397 128.184 548.733 129.507 555C168.204 549.051 209.253 544.266 252.105 540.774L192.432 486L126.105 536.004Z" fill="white"/>
</mask>
<g mask="url(#mask5_2044_1440)">
<path id="Fill 16" fill-rule="evenodd" clip-rule="evenodd" d="M111.105 570H267.105V471H111.105V570Z" fill="#100E1F"/>
</g>
</g>
<g id="Group 21">
<mask id="mask6_2044_1440" style="mask-type:luminance" maskUnits="userSpaceOnUse" x="326" y="653" width="235" height="22">
<path id="Clip 20" fill-rule="evenodd" clip-rule="evenodd" d="M326.256 663.654C326.256 669.45 378.639 674.154 443.259 674.154C507.876 674.154 560.259 669.45 560.259 663.654C560.259 657.858 507.876 653.154 443.259 653.154C378.639 653.154 326.256 657.858 326.256 663.654Z" fill="white"/>
</mask>
<g mask="url(#mask6_2044_1440)">
<path id="Fill 19" fill-rule="evenodd" clip-rule="evenodd" d="M311.262 689.154H575.262V638.154H311.262V689.154Z" fill="#151329"/>
</g>
</g>
<g id="Group 24">
<mask id="mask7_2044_1440" style="mask-type:luminance" maskUnits="userSpaceOnUse" x="723" y="699" width="43" height="42">
<path id="Clip 23" fill-rule="evenodd" clip-rule="evenodd" d="M723.105 720C723.105 731.55 732.555 741 744.105 741C755.655 741 765.105 731.55 765.105 720C765.105 708.453 755.655 699 744.105 699C732.555 699 723.105 708.453 723.105 720Z" fill="white"/>
</mask>
<g mask="url(#mask7_2044_1440)">
<path id="Fill 22" fill-rule="evenodd" clip-rule="evenodd" d="M708.105 756H780.105V684H708.105V756Z" fill="#151329"/>
</g>
</g>
<g id="Group 47">
<path id="Fill 25" fill-rule="evenodd" clip-rule="evenodd" d="M440.167 408.694C430.399 408.694 422.479 400.774 422.479 391.006C422.479 381.241 430.399 373.324 440.167 373.324C449.935 373.324 457.855 381.241 457.855 391.006C457.855 400.774 449.935 408.694 440.167 408.694ZM440.165 366C426.353 366 415.154 377.196 415.154 391.008C415.154 404.826 426.353 416.022 440.165 416.022C453.977 416.022 465.179 404.826 465.179 391.008C465.179 377.196 453.977 366 440.165 366Z" fill="white"/>
<path id="Fill 27" fill-rule="evenodd" clip-rule="evenodd" d="M507.953 625.499H372.386C358.886 625.499 347.936 614.555 347.936 601.052V476.384C347.936 427.709 387.764 387.884 436.436 387.884H443.9C492.578 387.884 532.4 427.709 532.4 476.384V601.052C532.4 614.555 521.456 625.499 507.953 625.499Z" fill="white"/>
<path id="Fill 29" fill-rule="evenodd" clip-rule="evenodd" d="M543.509 595.798H542.183C536.801 595.798 532.4 591.394 532.4 586.015V516.475C532.4 511.093 536.801 506.692 542.183 506.692H555.446C560.825 506.692 565.226 511.093 565.226 516.475V574.078C565.226 586.024 555.452 595.798 543.509 595.798Z" fill="#3465E5"/>
<path id="Fill 31" fill-rule="evenodd" clip-rule="evenodd" d="M338.154 595.798H336.828C324.879 595.798 315.105 586.024 315.105 574.078V516.475C315.105 511.093 319.506 506.692 324.888 506.692H338.154C343.533 506.692 347.934 511.093 347.934 516.475V586.015C347.934 591.394 343.533 595.798 338.154 595.798Z" fill="#3465E5"/>
<path id="Fill 33" fill-rule="evenodd" clip-rule="evenodd" d="M522.105 572.129L441.108 612L360.105 572.129V486H522.105V572.129Z" fill="#BEC0D6"/>
<path id="Fill 43" fill-rule="evenodd" clip-rule="evenodd" d="M522.105 481.51V494.673V522L360.105 447.345C370.875 420.858 397.786 402 428.998 402H442.713C483.401 402 522.105 442.328 522.105 481.51Z" fill="#A2A1B7"/>
<path id="Fill 45" fill-rule="evenodd" clip-rule="evenodd" d="M360.105 487.49V474.327V447L522.105 521.658C511.339 548.142 484.428 567 453.212 567H439.501C398.81 567 360.105 526.672 360.105 487.49Z" fill="#3465E5"/>
</g>
<g id="Bee">
<path id="Stroke 3" d="M490.542 126C386.621 134.797 348.427 222.759 379.716 274.033C401.795 310.21 439.208 359.102 508.948 347.374C578.686 335.643 584.562 271.103 547.834 262.324C511.106 253.548 380.263 294.492 395.05 389.08C405.724 457.328 498.247 477 498.247 477" stroke="white" stroke-width="2" stroke-dasharray="7"/>
<path id="Fill 5" fill-rule="evenodd" clip-rule="evenodd" d="M550.608 72C550.608 72 565.499 33.1008 567.068 17.9685C567.894 10.0615 554.791 -11.9535 539.455 8.41034C524.12 28.7742 531.116 53.7429 550.608 72Z" fill="white"/>
<path id="Fill 7_2" fill-rule="evenodd" clip-rule="evenodd" d="M497.767 29.636C480.323 23.7366 472.426 28.3363 469.061 37.5172C465.693 46.7012 470.394 64.1823 496.705 68.1672C523.019 72.1521 549.105 71.9992 549.105 71.9992C549.105 71.9992 515.212 35.5354 497.767 29.636Z" fill="white"/>
<path id="Fill 9" fill-rule="evenodd" clip-rule="evenodd" d="M547.654 79.7076C548.05 78.0816 548.574 76.5231 549.157 75C545.936 75.5087 542.659 76.2232 539.361 77.1906C535.784 78.2374 532.444 79.6106 529.304 81.1837C527.941 83.7595 526.836 86.5117 526.119 89.4669C521.699 107.659 532.134 125.996 549.669 132C551.568 131.624 553.476 131.188 555.387 130.63C560.727 129.065 565.653 126.995 570.105 124.596C552.982 117.083 543.127 98.3352 547.654 79.7076Z" fill="white"/>
<path id="Fill 11" fill-rule="evenodd" clip-rule="evenodd" d="M522.62 89.195C523.039 87.3978 523.607 85.6792 524.237 84C509.067 93.7183 500.572 108.801 501.973 117.597C492.28 121.763 486.105 125.273 486.105 125.273C486.105 125.273 493.419 124.716 504.077 122.668C509.785 131.009 525.609 136.595 543.105 134.592C527.256 126.395 518.309 107.742 522.62 89.195Z" fill="white"/>
<path id="Fill 13_2" fill-rule="evenodd" clip-rule="evenodd" d="M572.856 95.7902C568.838 94.8259 566.347 90.7892 567.314 86.7464C568.278 82.7314 572.34 80.2433 576.356 81.2076C580.392 82.1781 582.859 86.2302 581.898 90.2483C580.927 94.2881 576.896 96.7577 572.856 95.7902ZM590.462 90.3895C587.228 79.1878 572.358 73.4031 554.817 75.384C554.084 77.1197 553.46 78.9508 553.015 80.8472C549.109 97.474 558.131 114.199 573.433 120C586.201 111.877 593.37 100.376 590.462 90.3895Z" fill="white"/>
</g>
</g>
</svg>
