<svg width="40" height="40" viewBox="0 0 40 40" fill="none" xmlns="http://www.w3.org/2000/svg">
<circle cx="20" cy="20" r="20" transform="rotate(180 20 20)" fill="#3465E5"/>
<path d="M23.4657 27.0298C23.6735 27.0344 23.8776 26.9741 24.0495 26.8574C24.2215 26.7406 24.3528 26.5731 24.4252 26.3782C24.4976 26.1834 24.5075 25.9709 24.4535 25.7701C24.3995 25.5694 24.2843 25.3906 24.1239 25.2584L18.0048 20.0162L24.1239 14.7759C24.2349 14.6943 24.3278 14.5908 24.3968 14.4717C24.4659 14.3526 24.5096 14.2205 24.5253 14.0837C24.5409 13.9469 24.5281 13.8084 24.4878 13.6768C24.4474 13.5451 24.3803 13.4232 24.2906 13.3187C24.201 13.2142 24.0907 13.1295 23.9667 13.0696C23.8428 13.0097 23.7078 12.9761 23.5702 12.9707C23.4326 12.9654 23.2954 12.9885 23.1672 13.0387C23.039 13.0889 22.9225 13.165 22.8251 13.2622L15.8192 19.2564C15.7092 19.3503 15.6209 19.4668 15.5603 19.5982C15.4997 19.7295 15.4683 19.8725 15.4683 20.0171C15.4683 20.1617 15.4997 20.3047 15.5603 20.436C15.6209 20.5674 15.7092 20.684 15.8192 20.7779L22.8251 26.7779C23.0021 26.9351 23.2291 27.0242 23.4657 27.0298Z" fill="white"/>
</svg>
