<svg width="35" height="25" viewBox="0 0 35 25" fill="none" xmlns="http://www.w3.org/2000/svg">
<path d="M15.5781 3.25V17C15.576 18.9885 14.7654 20.8949 13.3242 22.301C11.8829 23.7071 9.92883 24.4979 7.89062 24.5C7.55082 24.5 7.22493 24.3683 6.98464 24.1339C6.74436 23.8995 6.60938 23.5815 6.60938 23.25C6.60938 22.9185 6.74436 22.6005 6.98464 22.3661C7.22493 22.1317 7.55082 22 7.89062 22C9.24986 22 10.5534 21.4732 11.5145 20.5355C12.4757 19.5979 13.0156 18.3261 13.0156 17V15.75H3.40625C2.72663 15.75 2.07485 15.4866 1.59429 15.0178C1.11373 14.5489 0.84375 13.913 0.84375 13.25V3.25C0.84375 2.58696 1.11373 1.95107 1.59429 1.48223C2.07485 1.01339 2.72663 0.75 3.40625 0.75H13.0156C13.6952 0.75 14.347 1.01339 14.8276 1.48223C15.3081 1.95107 15.5781 2.58696 15.5781 3.25ZM31.5938 0.75H21.9844C21.3048 0.75 20.653 1.01339 20.1724 1.48223C19.6919 1.95107 19.4219 2.58696 19.4219 3.25V13.25C19.4219 13.913 19.6919 14.5489 20.1724 15.0178C20.653 15.4866 21.3048 15.75 21.9844 15.75H31.5938V17C31.5938 18.3261 31.0538 19.5979 30.0927 20.5355C29.1315 21.4732 27.828 22 26.4688 22C26.1289 22 25.803 22.1317 25.5628 22.3661C25.3225 22.6005 25.1875 22.9185 25.1875 23.25C25.1875 23.5815 25.3225 23.8995 25.5628 24.1339C25.803 24.3683 26.1289 24.5 26.4688 24.5C28.507 24.4979 30.4611 23.7071 31.9023 22.301C33.3435 20.8949 34.1541 18.9885 34.1562 17V3.25C34.1562 2.58696 33.8863 1.95107 33.4057 1.48223C32.9251 1.01339 32.2734 0.75 31.5938 0.75Z" fill="#3465E5"/>
</svg>
