<svg width="24" height="25" viewBox="0 0 24 25" fill="none" xmlns="http://www.w3.org/2000/svg">
<g clip-path="url(#clip0_3053_772)">
<path d="M14.5781 24.5H5.625C3.55719 24.5 1.875 22.8178 1.875 20.75V8.04688C1.875 5.97906 3.55719 4.29688 5.625 4.29688H14.5781C16.6459 4.29688 18.3281 5.97906 18.3281 8.04688V20.75C18.3281 22.8178 16.6459 24.5 14.5781 24.5ZM5.625 6.17188C4.59119 6.17188 3.75 7.01306 3.75 8.04688V20.75C3.75 21.7838 4.59119 22.625 5.625 22.625H14.5781C15.6119 22.625 16.4531 21.7838 16.4531 20.75V8.04688C16.4531 7.01306 15.6119 6.17188 14.5781 6.17188H5.625ZM22.0781 18.4062V4.25C22.0781 2.18219 20.3959 0.5 18.3281 0.5H7.92188C7.40405 0.5 6.98438 0.919678 6.98438 1.4375C6.98438 1.95532 7.40405 2.375 7.92188 2.375H18.3281C19.3619 2.375 20.2031 3.21619 20.2031 4.25V18.4062C20.2031 18.9241 20.6228 19.3438 21.1406 19.3438C21.6584 19.3438 22.0781 18.9241 22.0781 18.4062Z" fill="white"/>
</g>
<defs>
<clipPath id="clip0_3053_772">
<rect width="24" height="24" fill="white" transform="translate(0 0.5)"/>
</clipPath>
</defs>
</svg>
