<svg width="24" height="24" viewBox="0 0 24 24" fill="none" xmlns="http://www.w3.org/2000/svg">
<path d="M22.8196 7.83798L21.469 3.75934C21.1205 2.70706 20.17 2 19.1041 2H4.89585C3.82996 2 2.87954 2.70706 2.53103 3.75934L1.18037 7.83798C0.859559 8.80648 0.970329 9.79408 1.48368 10.547C2.01114 11.3206 2.9101 11.7641 3.95013 11.7641C4.97005 11.7641 5.9931 11.3373 6.78076 10.6223C7.38895 11.3337 8.30228 11.7641 9.31671 11.7641C10.3426 11.7641 11.3064 11.3389 12 10.6231C12.6936 11.3389 13.6576 11.7641 14.6833 11.7641C15.698 11.7641 16.6113 11.3337 17.2195 10.6223C17.8681 11.2113 18.6772 11.6002 19.5122 11.7205V18.7946C19.5122 19.6373 18.8554 20.3233 18.0482 20.3233H15.2502V16.5705C15.2502 14.7804 13.8562 13.3242 12.1421 13.3242H11.9067C10.1929 13.3242 8.79865 14.7804 8.79865 16.5705V20.3233H5.95156C5.14456 20.3233 4.48778 19.6373 4.48778 18.7946V13.8067C4.48778 13.3439 4.12857 12.9684 3.68523 12.9684C3.24189 12.9684 2.88267 13.3439 2.88267 13.8067V18.7946C2.88267 20.5619 4.25945 22 5.95156 22H9.60121H14.4476H18.0482C19.7405 22 21.1173 20.5619 21.1173 18.7946V11.5918C21.6942 11.396 22.1809 11.0389 22.5166 10.547C23.0297 9.7938 23.1404 8.80648 22.8196 7.83798ZM10.4038 20.3233V16.5705C10.4038 15.7049 11.078 15.0009 11.9067 15.0009H12.1421C12.9711 15.0009 13.6451 15.7049 13.6451 16.5705V20.3233H10.4038ZM21.2088 9.5744C20.983 9.90514 20.5718 10.0874 20.0499 10.0874C19.1747 10.0874 18.2556 9.5482 17.7629 8.74535C17.614 8.50275 17.3585 8.35948 17.0873 8.35948C17.0507 8.35948 17.0141 8.36221 16.977 8.36739C16.6667 8.41242 16.4101 8.64165 16.3192 8.95466C16.1196 9.64289 15.4775 10.0874 14.6833 10.0874C13.8494 10.0874 13.063 9.58613 12.726 8.84004C12.5933 8.54668 12.3106 8.35948 12 8.35948C11.6894 8.35948 11.4067 8.54668 11.2742 8.84004C10.937 9.58613 10.1504 10.0874 9.31671 10.0874C8.52277 10.0874 7.88062 9.64262 7.68077 8.95466C7.58985 8.64165 7.33304 8.41242 7.02294 8.36739C6.71206 8.32428 6.40587 8.47027 6.23684 8.74562C5.74465 9.5482 4.82558 10.0874 3.95013 10.0874C3.42842 10.0874 3.01669 9.90514 2.79097 9.5744C2.57962 9.26412 2.54618 8.84223 2.69718 8.38595L4.04784 4.30758C4.17298 3.93017 4.51365 3.67665 4.89585 3.67665H19.1041C19.4861 3.67665 19.8267 3.93017 19.9516 4.3073L21.3023 8.38622C21.4538 8.84223 21.4204 9.26412 21.2088 9.5744Z" fill="#A3A4AF"/>
</svg>
