<svg width="310" height="248" viewBox="0 0 310 248" fill="none" xmlns="http://www.w3.org/2000/svg">
<ellipse cx="161.889" cy="126.409" rx="120.783" ry="120.783" fill="#332E61"/>
<ellipse cx="48.6759" cy="44.8542" rx="7.57046" ry="7.57047" fill="#423C7A"/>
<ellipse cx="244.476" cy="14.9165" rx="14.1086" ry="14.1086" fill="#423C7A"/>
<ellipse cx="51.0844" cy="204.178" rx="13.4204" ry="13.4204" fill="#423C7A"/>
<ellipse cx="291.274" cy="191.102" rx="13.4204" ry="13.4204" fill="#423C7A"/>
<ellipse cx="265.122" cy="206.243" rx="6.53812" ry="6.53813" fill="#423C7A"/>
<path d="M181.175 10.8126C180.776 10.7277 180.776 10.1582 181.175 10.0734L187.208 8.79052C187.354 8.7596 187.467 8.64629 187.499 8.50101L188.798 2.51077C188.884 2.11374 189.45 2.11374 189.536 2.51077L190.835 8.50101C190.867 8.64629 190.981 8.7596 191.126 8.79052L197.159 10.0734C197.558 10.1582 197.558 10.7277 197.159 10.8126L191.126 12.0954C190.981 12.1264 190.867 12.2397 190.835 12.385L189.536 18.3752C189.45 18.7722 188.884 18.7722 188.798 18.3752L187.499 12.385C187.467 12.2397 187.354 12.1264 187.208 12.0954L181.175 10.8126Z" fill="#C4CBF5"/>
<path d="M17.1708 144.386C17.3248 143.659 18.3634 143.659 18.5174 144.386L20.818 155.255C20.8741 155.52 21.0802 155.728 21.3448 155.785L32.1014 158.129C32.8237 158.286 32.8237 159.316 32.1014 159.473L21.3448 161.817C21.0802 161.874 20.8741 162.082 20.818 162.347L18.5174 173.216C18.3634 173.943 17.3248 173.943 17.1708 173.216L14.8702 162.347C14.8141 162.082 14.6079 161.874 14.3434 161.817L3.58677 159.473C2.86446 159.316 2.86446 158.286 3.58677 158.129L14.3434 155.785C14.6079 155.728 14.8141 155.52 14.8702 155.255L17.1708 144.386Z" fill="#C4CBF5"/>
<path d="M269.833 48.0352C269.987 47.3076 271.025 47.3076 271.179 48.0352L272.522 54.3758C272.578 54.6407 272.784 54.8481 273.048 54.9057L279.341 56.2767C280.064 56.4341 280.064 57.4642 279.341 57.6216L273.048 58.9926C272.784 59.0502 272.578 59.2576 272.522 59.5225L271.179 65.8631C271.025 66.5907 269.987 66.5907 269.833 65.8631L268.491 59.5225C268.435 59.2576 268.228 59.0502 267.964 58.9926L261.671 57.6216C260.948 57.4642 260.948 56.4341 261.671 56.2767L267.964 54.9057C268.228 54.8481 268.435 54.6407 268.491 54.3758L269.833 48.0352Z" fill="#C4CBF5"/>
<path d="M297.578 149.692L299.686 159.649L309.5 161.787L299.686 163.925L297.578 173.882L295.471 163.925L285.656 161.787L295.471 159.649L297.578 149.692Z" fill="white"/>
<rect x="159.374" y="57.1675" width="124.024" height="133.521" rx="7.22083" transform="rotate(10 159.374 57.1675)" fill="#423C7A" stroke="#C4CBF5" stroke-width="2.7529"/>
<rect x="166.416" y="67.2251" width="105.929" height="92.049" rx="5.84438" transform="rotate(10 166.416 67.2251)" fill="#332E61"/>
<rect x="39.5109" y="78.7038" width="124.024" height="133.521" rx="7.22083" transform="rotate(-10 39.5109 78.7038)" fill="#423C7A" stroke="#C4CBF5" stroke-width="2.7529"/>
<rect x="49.5684" y="85.7468" width="105.929" height="92.049" rx="5.84438" transform="rotate(-10 49.5684 85.7468)" fill="#332E61"/>
<rect x="90.3911" y="46.2306" width="147.923" height="159.292" rx="8.37258" fill="#332E61" stroke="#C4CBF5" stroke-width="2.7529"/>
<rect x="100.514" y="56.3523" width="126.805" height="110.189" rx="6.99614" fill="#423C7A"/>
<ellipse cx="180.546" cy="82.002" rx="10.2255" ry="10.2255" fill="white"/>
<path d="M193.504 102.877C194.179 101.814 195.729 101.814 196.404 102.877L218.638 137.886C219.364 139.029 218.542 140.524 217.188 140.524H172.72C171.366 140.524 170.544 139.029 171.27 137.886L193.504 102.877Z" fill="#C4CBF5"/>
<path d="M143.244 80.4802C143.372 80.2622 143.686 80.2575 143.82 80.4717L144.986 79.739L143.82 80.4717L180.548 138.878C180.689 139.103 180.528 139.396 180.262 139.396H109.175C108.914 139.396 108.751 139.112 108.884 138.887L143.244 80.4802Z" fill="#DDE2FF" stroke="#DDE2FF" stroke-width="2.7529"/>
<path d="M142.823 77.4812C143.097 77.005 143.78 76.995 144.067 77.4631L153.909 93.5037C154.319 94.1725 153.52 94.9246 152.877 94.4746L149.894 92.3863C149.638 92.207 149.295 92.2126 149.045 92.4002L144.793 95.5896C144.583 95.7469 144.304 95.7784 144.065 95.6719L139.112 93.4706C138.923 93.3867 138.707 93.3876 138.519 93.4731L133.969 95.5414C133.329 95.8321 132.692 95.1322 133.042 94.5228L142.823 77.4812Z" fill="white"/>
<path d="M195.698 100.448C195.495 100.095 194.988 100.087 194.775 100.435L187.474 112.336C187.169 112.832 187.762 113.39 188.239 113.056L190.426 111.525C190.629 111.384 190.902 111.398 191.087 111.561L194.205 114.289C194.376 114.438 194.621 114.464 194.819 114.354L198.436 112.345C198.585 112.262 198.764 112.255 198.919 112.326L202.268 113.848C202.743 114.064 203.215 113.544 202.956 113.092L195.698 100.448Z" fill="white"/>
<path d="M120.121 147.073H154.051" stroke="#DDE2FF" stroke-width="2.7529" stroke-linecap="round"/>
<path d="M101.67 140.517H227.615" stroke="#C4CBF5" stroke-width="2.7529" stroke-linecap="square"/>
<path d="M144.754 152.418H166.604" stroke="#DDE2FF" stroke-width="2.7529" stroke-linecap="round"/>
<path d="M128.488 152.651H141.503" stroke="#DDE2FF" stroke-width="2.7529" stroke-linecap="round"/>
<path d="M187.982 147.538H198.673" stroke="#DDE2FF" stroke-width="2.7529" stroke-linecap="round"/>
</svg>
