<svg width="251" height="250" viewBox="0 0 251 250" fill="none" xmlns="http://www.w3.org/2000/svg">
<g clip-path="url(#clip0_2246_165)">
<circle cx="125.5" cy="136.655" r="102.273" fill="#332E61"/>
<circle cx="29.6378" cy="67.5991" r="6.41026" fill="#423C7A"/>
<circle cx="161.048" cy="22.4359" r="11.9464" fill="#423C7A"/>
<circle cx="39.2533" cy="218.24" r="11.3636" fill="#423C7A"/>
<circle cx="235.057" cy="191.434" r="11.3636" fill="#423C7A"/>
<circle cx="212.913" cy="204.254" r="5.53613" fill="#423C7A"/>
<path d="M131.343 39.3572C131.005 39.2853 131.005 38.8032 131.343 38.7313L136.451 37.645C136.574 37.6189 136.67 37.5229 136.697 37.3999L137.797 32.3277C137.87 31.9915 138.349 31.9915 138.422 32.3277L139.522 37.3999C139.549 37.5229 139.645 37.6189 139.768 37.645L144.876 38.7313C145.214 38.8032 145.214 39.2853 144.876 39.3572L139.768 40.4435C139.645 40.4696 139.549 40.5656 139.522 40.6886L138.422 45.7608C138.349 46.097 137.87 46.097 137.797 45.7608L136.697 40.6886C136.67 40.5656 136.574 40.4696 136.451 40.4435L131.343 39.3572Z" fill="#C4CBF5"/>
<path d="M14.6159 143.719C14.7463 143.103 15.6257 143.103 15.7561 143.719L17.7042 152.922C17.7516 153.146 17.9262 153.322 18.1502 153.371L27.2583 155.355C27.87 155.488 27.87 156.361 27.2583 156.494L18.1502 158.478C17.9262 158.527 17.7516 158.703 17.7042 158.927L15.7561 168.13C15.6257 168.746 14.7463 168.746 14.6159 168.13L12.6679 158.927C12.6204 158.703 12.4458 158.527 12.2218 158.478L3.11371 156.494C2.5021 156.361 2.5021 155.488 3.11371 155.355L12.2218 153.371C12.4458 153.322 12.6204 153.146 12.6679 152.922L14.6159 143.719Z" fill="#C4CBF5"/>
<path d="M216.902 70.2924C217.032 69.6763 217.912 69.6763 218.042 70.2924L219.178 75.6613C219.226 75.8856 219.401 76.0613 219.625 76.1101L224.953 77.2709C225.565 77.4041 225.565 78.2765 224.953 78.4097L219.625 79.5705C219.401 79.6193 219.226 79.795 219.178 80.0193L218.042 85.3882C217.912 86.0043 217.032 86.0043 216.902 85.3882L215.765 80.0193C215.718 79.795 215.543 79.6193 215.319 79.5705L209.991 78.4097C209.379 78.2765 209.379 77.4041 209.991 77.2709L215.319 76.1101C215.543 76.0613 215.718 75.8856 215.765 75.6613L216.902 70.2924Z" fill="#C4CBF5"/>
<path d="M240.395 156.37L242.179 164.801L250.49 166.611L242.179 168.421L240.395 176.852L238.61 168.421L230.3 166.611L238.61 164.801L240.395 156.37Z" fill="white"/>
<path d="M183.484 90.3263L45.6631 143.065L75.092 224.942L92.8659 232.809L115.01 237.471L137.446 236.597L150.558 234.266L162.213 230.769L181.444 220.862L197.761 208.042L199.021 206.413C206.132 197.221 212.437 187.432 217.866 177.156L183.484 90.3263Z" fill="#332E61"/>
<path d="M56.1527 119.755L41.584 111.597L168.041 63.8113L161.339 80.4197L166.293 95.8626L61.6889 135.781L56.1527 119.755Z" fill="#423C7A"/>
<path d="M74.5098 224.65V224.65C87.2614 231.17 101.067 235.381 115.286 237.087L115.641 237.13L125.78 237.13C133.374 237.13 140.946 236.321 148.369 234.719L150.883 234.176C158.819 232.463 166.482 229.664 173.655 225.86V225.86C179.252 222.892 184.514 219.332 189.35 215.239L190.92 213.911C195.117 210.36 199.011 206.465 202.563 202.268V202.268C207.535 196.392 211.806 189.956 215.29 183.091L218.449 176.865" stroke="#C4CBF5" stroke-width="2.331"/>
<path d="M44.5459 141.85L75.0928 225.214" stroke="#C4CBF5" stroke-width="2.331"/>
<path d="M184.697 90.2765L218.209 177.839" stroke="#C4CBF5" stroke-width="2.331"/>
<path d="M39.3011 111.838L169.833 62.7893" stroke="#C4CBF5" stroke-width="2.331"/>
<path d="M43.8703 143.352L182.861 89.7503L162.371 80.2344C161.783 79.9612 161.53 79.2601 161.81 78.6748L168.946 63.7438" stroke="#C4CBF5" stroke-width="2.331"/>
<path d="M40.4723 111.436L55.1647 119.313C55.7233 119.612 55.9402 120.303 55.6531 120.868L44.5459 142.724" stroke="#C4CBF5" stroke-width="2.331"/>
<path d="M39.8838 110.381L49.3509 134.046" stroke="#C4CBF5" stroke-width="2.331"/>
<path d="M55.8613 120.629L61.6888 136.946" stroke="#C4CBF5" stroke-width="2.331"/>
<path d="M161.922 79.8369L167.749 96.7367" stroke="#C4CBF5" stroke-width="2.331"/>
<path d="M169.048 64.0166L177.412 87.0714" stroke="#C4CBF5" stroke-width="2.331"/>
<circle cx="99.2761" cy="135.49" r="6.11889" fill="#DDE2FF"/>
<circle cx="90.5347" cy="104.021" r="4.37063" fill="#F1F3FF"/>
<circle cx="137.738" cy="120.921" r="6.11889" fill="#DDE2FF"/>
<circle cx="117.341" cy="94.1143" r="4.37063" fill="#F1F3FF"/>
</g>
<defs>
<clipPath id="clip0_2246_165">
<rect width="250" height="250" fill="white" transform="translate(0.5)"/>
</clipPath>
</defs>
</svg>
