<svg width="45" height="74" viewBox="0 0 45 74" fill="none" xmlns="http://www.w3.org/2000/svg">
<g filter="url(#filter0_b_917_48)">
<path d="M38.5421 11.6082C38.056 10.0614 36.9345 6.59762 33.5673 3.83986C29.7932 0.712002 25.5252 0.47549 23.9562 0.476371C23.8892 0.476406 23.8271 0.476874 23.7702 0.477569C23.0719 0.405971 22.3993 0.373005 21.7529 0.372925C14.3515 0.371778 10.3703 4.68135 10.3703 4.68135C7.18788 6.93482 9.21412 10.3311 9.21412 10.3311C8.89606 10.6085 8.57785 10.8817 8.25964 11.155C7.94149 11.4282 7.62314 11.7016 7.30514 11.9789C7.23041 12.1575 7.12408 12.4242 7.01168 12.7511C6.48274 14.2937 6.3096 15.7633 6.30973 17.092C6.30972 17.997 6.39016 18.8368 6.49351 19.5895L6.50315 19.6591H6.47581C6.5335 20.0053 6.59777 20.3422 6.66185 20.678L6.67205 20.7315L6.67729 20.761L6.70277 20.9093L6.47788 20.6838C4.29306 21.7464 3.19154 24.2411 3.85743 26.5195C4.4887 28.6824 6.5678 30.16 8.86502 30.0415L7.54599 24.4648C8.93292 29.4569 10.8669 33.1346 12.3467 35.5191C15.6914 40.9058 18.2128 42.1222 19.6995 42.6313C20.4365 42.8835 23.2168 43.7073 26.3154 42.6313C28.163 41.9897 30.2646 40.6008 33.1153 35.8047C34.2806 33.8447 35.7236 31.0541 36.9557 27.4208C36.9525 27.4643 36.9494 27.5114 36.9465 27.5572L36.9405 27.6468C37.7152 25.9249 38.7001 23.2371 39.0616 19.8141L39.0718 19.7168C39.2881 17.6686 39.5791 14.9119 38.5421 11.6082Z" fill="white" fill-opacity="0.3"/>
<path d="M8.57785 74.183H39.7707C42.5397 74.183 44.7843 71.9383 44.7843 69.1693V62.0333C44.7843 54.1489 39.1911 47.3641 31.4828 45.9011C31.4446 45.8932 31.3856 45.8853 31.3656 45.8902L31.2635 45.8905L28.209 42.0708L25.7398 42.9858C24.7926 43.3364 23.8017 43.5253 22.8034 43.5733C21.2122 43.6499 19.6362 43.2276 18.1926 42.5514L16.7988 41.7895L14.5144 45.9336L13.8943 45.9352C13.853 45.9352 13.8117 45.94 13.771 45.9485C6.2025 47.5039 0.709473 54.2692 0.709473 62.0333V69.5104C0.709473 72.091 2.80211 74.183 5.3827 74.183C7.02872 74.183 8.40237 74.183 8.57785 74.183Z" fill="white" fill-opacity="0.3"/>
<path d="M41.4335 26.4258C42.0957 23.8636 41.1795 21.4085 39.389 20.9424L36.3596 30.22C38.1514 30.6866 40.7718 28.9879 41.4335 26.4258Z" fill="white" fill-opacity="0.3"/>
</g>
<defs>
<filter id="filter0_b_917_48" x="-22.3029" y="-22.6395" width="90.0995" height="119.835" filterUnits="userSpaceOnUse" color-interpolation-filters="sRGB">
<feFlood flood-opacity="0" result="BackgroundImageFix"/>
<feGaussianBlur in="BackgroundImageFix" stdDeviation="11.5062"/>
<feComposite in2="SourceAlpha" operator="in" result="effect1_backgroundBlur_917_48"/>
<feBlend mode="normal" in="SourceGraphic" in2="effect1_backgroundBlur_917_48" result="shape"/>
</filter>
</defs>
</svg>
