<svg width="20" height="21" viewBox="0 0 20 21" fill="none" xmlns="http://www.w3.org/2000/svg">
<path d="M19.9229 7.29812L16.7306 1.57608C16.6233 1.38384 16.4204 1.26465 16.2002 1.26465H3.80013C3.57995 1.26465 3.37703 1.38376 3.26974 1.57608L0.076965 7.29812C-0.044255 7.51537 -0.0206912 7.78462 0.136401 7.97758L9.52969 19.511C9.53269 19.5148 9.53617 19.5179 9.53925 19.5216C9.54896 19.533 9.55901 19.5441 9.56961 19.5548C9.57083 19.556 9.57188 19.5574 9.5731 19.5587C9.57585 19.5613 9.57868 19.5638 9.58152 19.5664C9.58249 19.5674 9.58354 19.5681 9.58451 19.5691C9.59528 19.5792 9.60638 19.5889 9.61787 19.5983C9.62314 19.6026 9.62848 19.6069 9.63391 19.6111C9.64565 19.62 9.65779 19.6283 9.67018 19.6364C9.67601 19.6402 9.68176 19.644 9.68768 19.6477C9.69812 19.6539 9.70897 19.6596 9.71982 19.6654C9.72428 19.6677 9.72857 19.6702 9.7331 19.6724C9.73723 19.6744 9.74128 19.6764 9.74541 19.6783C9.75748 19.6839 9.76995 19.6887 9.78258 19.6936C9.79043 19.6966 9.79813 19.7 9.80614 19.7027C9.80768 19.7032 9.80898 19.7039 9.81051 19.7044C9.81108 19.7046 9.81165 19.7047 9.81221 19.7048C9.81756 19.7066 9.82331 19.7076 9.82881 19.7092C9.8493 19.7153 9.87011 19.7202 9.89117 19.7241C9.89991 19.7257 9.90858 19.7273 9.9174 19.7285C9.94242 19.732 9.96777 19.7342 9.99336 19.7345C9.99571 19.7345 9.99805 19.7351 10.0005 19.7351H10.0006C10.0031 19.7351 10.0054 19.7345 10.0078 19.7345C10.0334 19.7342 10.0588 19.732 10.0838 19.7285C10.0926 19.7273 10.1011 19.7257 10.1098 19.7242C10.1311 19.7203 10.1521 19.7153 10.1726 19.7091C10.1779 19.7076 10.1834 19.7066 10.1887 19.7049C10.1893 19.7047 10.19 19.7047 10.1905 19.7044C10.1922 19.7039 10.1934 19.7032 10.195 19.7026C10.2029 19.7 10.2105 19.6966 10.2182 19.6937C10.2309 19.6889 10.2435 19.684 10.2556 19.6784C10.2598 19.6765 10.2641 19.6744 10.2682 19.6724C10.2725 19.6702 10.2766 19.6678 10.2807 19.6657C10.2917 19.66 10.3027 19.6541 10.3132 19.6478C10.3192 19.6442 10.325 19.6403 10.331 19.6364C10.3433 19.6284 10.3555 19.62 10.367 19.6112C10.3725 19.6071 10.3778 19.6028 10.3831 19.5984C10.3948 19.589 10.4058 19.5792 10.4166 19.5691C10.4177 19.5681 10.4188 19.5672 10.4199 19.5663C10.4223 19.5639 10.4249 19.5617 10.4273 19.5593C10.4287 19.5579 10.4299 19.5564 10.4313 19.555C10.4421 19.5441 10.4524 19.5327 10.4623 19.521C10.4652 19.5176 10.4684 19.5146 10.4713 19.5111L19.8635 7.97758C20.0206 7.78462 20.0442 7.51537 19.9229 7.29812ZM11.1988 2.47936L12.9189 6.98677H7.08181L8.80245 2.47936H11.1988ZM12.9613 8.20139L10.0006 17.187L7.03954 8.20139H12.9613ZM5.7607 8.20139L8.39434 16.1936L1.88522 8.20139H5.7607ZM14.2401 8.20139H18.1149L11.6069 16.1933L14.2401 8.20139ZM18.3583 6.98677H14.219L12.4989 2.47936H15.8437L18.3583 6.98677ZM4.15666 2.47936H7.50232L5.78175 6.98677H1.64165L4.15666 2.47936Z" fill="url(#paint0_linear_2699_234)"/>
<defs>
<linearGradient id="paint0_linear_2699_234" x1="4.09089" y1="1.56911" x2="8.71014" y2="22.0522" gradientUnits="userSpaceOnUse">
<stop stop-color="#CEE0E0"/>
<stop offset="0.530983" stop-color="#666666"/>
<stop offset="1" stop-color="#CEE0E0"/>
</linearGradient>
</defs>
</svg>
